# xmcd
#
# Track frame offsets: 
#        150
#        16806
#        29696
#        41407
#        61756
#        73091
#        86506
#        98199
#        112717
#        124691
#        138279
#        145938
#        156683
#        172499
#        184552
#        194921
#        208105
#
# Disc length: 2968 seconds
#
# Revision: 0
# Processed by: cddbd v1.5.2PL0 Copyright (c) Steve Scherf et al.
# Submitted via: ExactAudioCopy v1.0b4
#
DISCID=fa0b9611
DTITLE=Little Roger and The Houserockers - Jumping At Jack's Joint
DYEAR=2009
DGENRE=Blues
TTITLE0=For You My Love
TTITLE1=Breaking Up The House
TTITLE2=Mona
TTITLE3=Oh! Darling
TTITLE4=Going Back Home
TTITLE5=Good Jax Boogie
TTITLE6=I'm High
TTITLE7=9 Days On The Road
TTITLE8=I Got Loaded
TTITLE9=You're Getting On My Nerves
TTITLE10=Messaround Radio
TTITLE11=The Joint Is Jumping
TTITLE12=Bad Dog
TTITLE13=Big Ben's Bop
TTITLE14=Duracell Woman
TTITLE15=I Wanna Hold You
TTITLE16=Oh! Woman (Reprise)
EXTD=
EXTT0=
EXTT1=
EXTT2=
EXTT3=
EXTT4=
EXTT5=
EXTT6=
EXTT7=
EXTT8=
EXTT9=
EXTT10=
EXTT11=
EXTT12=
EXTT13=
EXTT14=
EXTT15=
EXTT16=
PLAYORDER=
